<mxfile host="65bd71144e">
    <diagram name="Sentinel Gate Architecture" id="sentinel-gate-arch">
        <mxGraphModel dx="1021" dy="834" grid="1" gridSize="10" guides="1" tooltips="1" connect="1" arrows="1" fold="1" page="1" pageScale="1" pageWidth="1169" pageHeight="827" math="0" shadow="0">
            <root>
                <mxCell id="0"/>
                <mxCell id="1" parent="0"/>
                <mxCell id="client-group" value="Client" style="swimlane;fontStyle=1;align=center;verticalAlign=top;childLayout=stackLayout;horizontal=1;startSize=30;horizontalStack=0;resizeParent=1;resizeParentMax=0;resizeLast=0;collapsible=0;marginBottom=0;fillColor=#dae8fc;strokeColor=#6c8ebf;" parent="1" vertex="1">
                    <mxGeometry x="80" y="40" width="160" height="60" as="geometry"/>
                </mxCell>
                <mxCell id="client" value="Client/Frontend" style="rounded=1;whiteSpace=wrap;html=1;fillColor=#e1f5fe;strokeColor=#01579b;" parent="client-group" vertex="1">
                    <mxGeometry y="30" width="160" height="30" as="geometry"/>
                </mxCell>
                <mxCell id="gateway-group" value="Sentinel Gate API Gateway" style="swimlane;fontStyle=1;align=center;verticalAlign=top;childLayout=stackLayout;horizontal=1;startSize=30;horizontalStack=0;resizeParent=1;resizeParentMax=0;resizeLast=0;collapsible=0;marginBottom=0;fillColor=#f8cecc;strokeColor=#b85450;" parent="1" vertex="1">
                    <mxGeometry x="320" y="40" width="480" height="400" as="geometry"/>
                </mxCell>
                <mxCell id="gateway" value="API Gateway :8080" style="rounded=1;whiteSpace=wrap;html=1;fillColor=#e1f5fe;strokeColor=#01579b;fontStyle=1;" parent="gateway-group" vertex="1">
                    <mxGeometry x="180" y="40" width="120" height="30" as="geometry"/>
                </mxCell>
                <mxCell id="middleware-group" value="Middlewares" style="swimlane;fontStyle=1;align=center;verticalAlign=top;childLayout=stackLayout;horizontal=1;startSize=25;horizontalStack=0;resizeParent=1;resizeParentMax=0;resizeLast=0;collapsible=0;marginBottom=0;fillColor=#f3e5f5;strokeColor=#9673a6;" parent="gateway-group" vertex="1">
                    <mxGeometry x="20" y="90" width="200" height="200" as="geometry"/>
                </mxCell>
                <mxCell id="cors" value="CORS" style="rounded=1;whiteSpace=wrap;html=1;fillColor=#f3e5f5;strokeColor=#9673a6;" parent="middleware-group" vertex="1">
                    <mxGeometry x="20" y="35" width="80" height="25" as="geometry"/>
                </mxCell>
                <mxCell id="auth" value="JWT Auth" style="rounded=1;whiteSpace=wrap;html=1;fillColor=#f3e5f5;strokeColor=#9673a6;" parent="middleware-group" vertex="1">
                    <mxGeometry x="110" y="35" width="80" height="25" as="geometry"/>
                </mxCell>
                <mxCell id="ratelimit" value="Rate Limiter&#xa;Redis" style="rounded=1;whiteSpace=wrap;html=1;fillColor=#f3e5f5;strokeColor=#9673a6;" parent="middleware-group" vertex="1">
                    <mxGeometry x="20" y="70" width="80" height="35" as="geometry"/>
                </mxCell>
                <mxCell id="circuitbreaker" value="Circuit Breaker" style="rounded=1;whiteSpace=wrap;html=1;fillColor=#f3e5f5;strokeColor=#9673a6;" parent="middleware-group" vertex="1">
                    <mxGeometry x="110" y="70" width="80" height="35" as="geometry"/>
                </mxCell>
                <mxCell id="metrics" value="Metrics&#xa;OpenTelemetry" style="rounded=1;whiteSpace=wrap;html=1;fillColor=#f3e5f5;strokeColor=#9673a6;" parent="middleware-group" vertex="1">
                    <mxGeometry x="20" y="115" width="80" height="35" as="geometry"/>
                </mxCell>
                <mxCell id="logger" value="Structured Logger" style="rounded=1;whiteSpace=wrap;html=1;fillColor=#f3e5f5;strokeColor=#9673a6;" parent="middleware-group" vertex="1">
                    <mxGeometry x="110" y="115" width="80" height="35" as="geometry"/>
                </mxCell>
                <mxCell id="core-group" value="Core Components" style="swimlane;fontStyle=1;align=center;verticalAlign=top;childLayout=stackLayout;horizontal=1;startSize=25;horizontalStack=0;resizeParent=1;resizeParentMax=0;resizeLast=0;collapsible=0;marginBottom=0;fillColor=#fff2cc;strokeColor=#d6b656;" parent="gateway-group" vertex="1">
                    <mxGeometry x="250" y="90" width="200" height="200" as="geometry"/>
                </mxCell>
                <mxCell id="proxy" value="Reverse Proxy" style="rounded=1;whiteSpace=wrap;html=1;fillColor=#fff2cc;strokeColor=#d6b656;" parent="core-group" vertex="1">
                    <mxGeometry x="60" y="35" width="80" height="30" as="geometry"/>
                </mxCell>
                <mxCell id="config" value="Configuration" style="rounded=1;whiteSpace=wrap;html=1;fillColor=#fff2cc;strokeColor=#d6b656;" parent="core-group" vertex="1">
                    <mxGeometry x="60" y="75" width="80" height="30" as="geometry"/>
                </mxCell>
                <mxCell id="telemetry" value="Telemetry Engine" style="rounded=1;whiteSpace=wrap;html=1;fillColor=#fff2cc;strokeColor=#d6b656;" parent="core-group" vertex="1">
                    <mxGeometry x="60" y="115" width="80" height="30" as="geometry"/>
                </mxCell>
                <mxCell id="external-group" value="External Services" style="swimlane;fontStyle=1;align=center;verticalAlign=top;childLayout=stackLayout;horizontal=1;startSize=30;horizontalStack=0;resizeParent=1;resizeParentMax=0;resizeLast=0;collapsible=0;marginBottom=0;fillColor=#fff3e0;strokeColor=#ff8f00;" parent="1" vertex="1">
                    <mxGeometry x="80" y="480" width="280" height="120" as="geometry"/>
                </mxCell>
                <mxCell id="redis" value="Redis&#xa;Rate Limiting" style="shape=cylinder3;whiteSpace=wrap;html=1;boundedLbl=1;backgroundOutline=1;size=15;fillColor=#fff3e0;strokeColor=#ff8f00;" parent="external-group" vertex="1">
                    <mxGeometry x="30" y="40" width="80" height="60" as="geometry"/>
                </mxCell>
                <mxCell id="prometheus" value="Prometheus&#xa;:9090" style="rounded=1;whiteSpace=wrap;html=1;fillColor=#fff3e0;strokeColor=#ff8f00;" parent="external-group" vertex="1">
                    <mxGeometry x="150" y="50" width="80" height="40" as="geometry"/>
                </mxCell>
                <mxCell id="backend-group" value="Backend Services" style="swimlane;fontStyle=1;align=center;verticalAlign=top;childLayout=stackLayout;horizontal=1;startSize=30;horizontalStack=0;resizeParent=1;resizeParentMax=0;resizeLast=0;collapsible=0;marginBottom=0;fillColor=#e8f5e8;strokeColor=#4caf50;" parent="1" vertex="1">
                    <mxGeometry x="440" y="480" width="360" height="120" as="geometry"/>
                </mxCell>
                <mxCell id="userservice" value="User Service&#xa;:3001" style="rounded=1;whiteSpace=wrap;html=1;fillColor=#e8f5e8;strokeColor=#4caf50;" parent="backend-group" vertex="1">
                    <mxGeometry x="20" y="40" width="80" height="40" as="geometry"/>
                </mxCell>
                <mxCell id="orderservice" value="Order Service&#xa;:3002" style="rounded=1;whiteSpace=wrap;html=1;fillColor=#e8f5e8;strokeColor=#4caf50;" parent="backend-group" vertex="1">
                    <mxGeometry x="140" y="40" width="80" height="40" as="geometry"/>
                </mxCell>
                <mxCell id="otherservices" value="Other Services&#xa;:300X" style="rounded=1;whiteSpace=wrap;html=1;fillColor=#e8f5e8;strokeColor=#4caf50;" parent="backend-group" vertex="1">
                    <mxGeometry x="260" y="40" width="80" height="40" as="geometry"/>
                </mxCell>
                <mxCell id="arrow1" value="1. HTTP Request" style="edgeStyle=orthogonalEdgeStyle;rounded=0;orthogonalLoop=1;jettySize=auto;html=1;exitX=1;exitY=0.5;exitDx=0;exitDy=0;entryX=0;entryY=0.5;entryDx=0;entryDy=0;" parent="1" source="client" target="gateway" edge="1">
                    <mxGeometry relative="1" as="geometry"/>
                </mxCell>
                <mxCell id="arrow2" value="" style="edgeStyle=orthogonalEdgeStyle;rounded=0;orthogonalLoop=1;jettySize=auto;html=1;" parent="1" source="gateway" target="cors" edge="1">
                    <mxGeometry relative="1" as="geometry"/>
                </mxCell>
                <mxCell id="arrow3" value="" style="edgeStyle=orthogonalEdgeStyle;rounded=0;orthogonalLoop=1;jettySize=auto;html=1;exitX=0.5;exitY=1;exitDx=0;exitDy=0;entryX=0.5;entryY=0;entryDx=0;entryDy=0;" parent="1" source="ratelimit" target="redis" edge="1">
                    <mxGeometry relative="1" as="geometry"/>
                </mxCell>
                <mxCell id="arrow4" value="" style="edgeStyle=orthogonalEdgeStyle;rounded=0;orthogonalLoop=1;jettySize=auto;html=1;exitX=0.5;exitY=1;exitDx=0;exitDy=0;entryX=0.5;entryY=0;entryDx=0;entryDy=0;" parent="1" source="metrics" target="prometheus" edge="1">
                    <mxGeometry relative="1" as="geometry"/>
                </mxCell>
                <mxCell id="arrow5" value="/api/users/*" style="edgeStyle=orthogonalEdgeStyle;rounded=0;orthogonalLoop=1;jettySize=auto;html=1;exitX=0.5;exitY=1;exitDx=0;exitDy=0;entryX=0.5;entryY=0;entryDx=0;entryDy=0;" parent="1" source="proxy" target="userservice" edge="1">
                    <mxGeometry relative="1" as="geometry"/>
                </mxCell>
                <mxCell id="arrow6" value="/api/orders/*" style="edgeStyle=orthogonalEdgeStyle;rounded=0;orthogonalLoop=1;jettySize=auto;html=1;exitX=0.5;exitY=1;exitDx=0;exitDy=0;entryX=0.5;entryY=0;entryDx=0;entryDy=0;" parent="1" source="proxy" target="orderservice" edge="1">
                    <mxGeometry relative="1" as="geometry"/>
                </mxCell>
                <mxCell id="arrow7" value="/api/other/*" style="edgeStyle=orthogonalEdgeStyle;rounded=0;orthogonalLoop=1;jettySize=auto;html=1;exitX=0.5;exitY=1;exitDx=0;exitDy=0;entryX=0.5;entryY=0;entryDx=0;entryDy=0;" parent="1" source="proxy" target="otherservices" edge="1">
                    <mxGeometry relative="1" as="geometry"/>
                </mxCell>
                <mxCell id="arrow8" value="6. HTTP Response" style="edgeStyle=orthogonalEdgeStyle;rounded=0;orthogonalLoop=1;jettySize=auto;html=1;exitX=0;exitY=0.5;exitDx=0;exitDy=0;entryX=1;entryY=0.5;entryDx=0;entryDy=0;dashed=1;" parent="1" source="proxy" target="client" edge="1">
                    <mxGeometry relative="1" as="geometry"/>
                </mxCell>
            </root>
        </mxGraphModel>
    </diagram>
</mxfile>